<svg xmlns="http://www.w3.org/2000/svg" xmlns:xlink="http://www.w3.org/1999/xlink" x="0" y="0" width="400" height="170" style="
        width:500px;
        height:170px;
        background: #FFF;
        fill: none;
">
        <svg xmlns="http://www.w3.org/2000/svg"/>
        
        <svg xmlns="http://www.w3.org/2000/svg" class="role-diagram-draw-area" style="overflow: visible;"><g class="shapes-region" style="stroke: black; fill: none;"><g class="grouped-shape"><g class="composite-shape"><path class="real" d=" M204,17 C204,9.82 209.82,4 217,4 C224.18,4 230,9.82 230,17 C230,24.18 224.18,30 217,30 C209.82,30 204,24.18 204,17 Z" style="stroke-width: 1; stroke: rgb(0, 0, 0); fill: none; fill-opacity: 1;"/></g><g class="composite-shape"><path class="real" d=" M94,66 C94,58.82 99.82,53 107,53 C114.18,53 120,58.82 120,66 C120,73.18 114.18,79 107,79 C99.82,79 94,73.18 94,66 Z" style="stroke-width: 1; stroke: rgb(0, 0, 0); fill: none; fill-opacity: 1;"/></g><g class="composite-shape"><path class="real" d=" M307,61 C307,53.82 312.82,48 320,48 C327.18,48 333,53.82 333,61 C333,68.18 327.18,74 320,74 C312.82,74 307,68.18 307,61 Z" style="stroke-width: 1; stroke: rgb(0, 0, 0); fill: none; fill-opacity: 1;"/></g><g class="composite-shape"><path class="real" d=" M34,104.5 C34,97.32 39.82,91.5 47,91.5 C54.18,91.5 60,97.32 60,104.5 C60,111.68 54.18,117.5 47,117.5 C39.82,117.5 34,111.68 34,104.5 Z" style="stroke-width: 1; stroke: rgb(0, 0, 0); fill: none; fill-opacity: 1;"/></g><g class="composite-shape"><path class="real" d=" M141.67,104.5 C141.67,97.32 147.49,91.5 154.67,91.5 C161.85,91.5 167.67,97.32 167.67,104.5 C167.67,111.68 161.85,117.5 154.67,117.5 C147.49,117.5 141.67,111.68 141.67,104.5 Z" style="stroke-width: 1; stroke: rgb(0, 0, 0); fill: none; fill-opacity: 1;"/></g><g class="composite-shape"><path class="real" d=" M249.34,104.5 C249.34,97.32 255.16,91.5 262.34,91.5 C269.52,91.5 275.34,97.32 275.34,104.5 C275.34,111.68 269.52,117.5 262.34,117.5 C255.16,117.5 249.34,111.68 249.34,104.5 Z" style="stroke-width: 1; stroke: rgb(0, 0, 0); fill: none; fill-opacity: 1;"/></g><g class="composite-shape"><path class="real" d=" M357,104.5 C357,97.32 362.82,91.5 370,91.5 C377.18,91.5 383,97.32 383,104.5 C383,111.68 377.18,117.5 370,117.5 C362.82,117.5 357,111.68 357,104.5 Z" style="stroke-width: 1; stroke: rgb(0, 0, 0); fill: none; fill-opacity: 1;"/></g><g class="composite-shape"><path class="real" d=" M3,142.5 C3,135.32 8.82,129.5 16,129.5 C23.18,129.5 29,135.32 29,142.5 C29,149.68 23.18,155.5 16,155.5 C8.82,155.5 3,149.68 3,142.5 Z" style="stroke-width: 1; stroke: rgb(0, 0, 0); fill: none; fill-opacity: 1;"/></g><g class="composite-shape"><path class="real" d=" M57.25,142.5 C57.25,135.32 63.07,129.5 70.25,129.5 C77.43,129.5 83.25,135.32 83.25,142.5 C83.25,149.68 77.43,155.5 70.25,155.5 C63.07,155.5 57.25,149.68 57.25,142.5 Z" style="stroke-width: 1; stroke: rgb(0, 0, 0); fill: none; fill-opacity: 1;"/></g><g class="composite-shape"><path class="real" d=" M111.5,142.5 C111.5,135.32 117.32,129.5 124.5,129.5 C131.68,129.5 137.5,135.32 137.5,142.5 C137.5,149.68 131.68,155.5 124.5,155.5 C117.32,155.5 111.5,149.68 111.5,142.5 Z" style="stroke-width: 1; stroke: rgb(0, 0, 0); fill: none; fill-opacity: 1;"/></g><g class="composite-shape"><path class="real" d=" M165.75,142.5 C165.75,135.32 171.57,129.5 178.75,129.5 C185.93,129.5 191.75,135.32 191.75,142.5 C191.75,149.68 185.93,155.5 178.75,155.5 C171.57,155.5 165.75,149.68 165.75,142.5 Z" style="stroke-width: 1; stroke: rgb(0, 0, 0); fill: none; fill-opacity: 1;"/></g><g class="composite-shape"><path class="real" d=" M220,142.5 C220,135.32 225.82,129.5 233,129.5 C240.18,129.5 246,135.32 246,142.5 C246,149.68 240.18,155.5 233,155.5 C225.82,155.5 220,149.68 220,142.5 Z" style="stroke-width: 1; stroke: rgb(0, 0, 0); fill: none; fill-opacity: 1;"/></g><g class="arrow-line"><path class="connection real" stroke-dasharray="" d="  M217,30 L107,53" style="stroke: rgb(0, 0, 0); stroke-width: 1; fill: none; fill-opacity: 1;"/></g><g class="arrow-line"><path class="connection real" stroke-dasharray="" d="  M217,30 L320,48" style="stroke: rgb(0, 0, 0); stroke-width: 1; fill: none; fill-opacity: 1;"/></g><g class="arrow-line"><path class="connection real" stroke-dasharray="" d="  M107,79 L47,91.5" style="stroke: rgb(0, 0, 0); stroke-width: 1; fill: none; fill-opacity: 1;"/></g><g class="arrow-line"><path class="connection real" stroke-dasharray="" d="  M107,79 L154.67,91.5" style="stroke: rgb(0, 0, 0); stroke-width: 1; fill: none; fill-opacity: 1;"/></g><g class="arrow-line"><path class="connection real" stroke-dasharray="" d="  M320,74 L262.34,91.5" style="stroke: rgb(0, 0, 0); stroke-width: 1; fill: none; fill-opacity: 1;"/></g><g class="arrow-line"><path class="connection real" stroke-dasharray="" d="  M320,74 L370,91.5" style="stroke: rgb(0, 0, 0); stroke-width: 1; fill: none; fill-opacity: 1;"/></g><g class="arrow-line"><path class="connection real" stroke-dasharray="" d="  M47,117.5 L16,129.5" style="stroke: rgb(0, 0, 0); stroke-width: 1; fill: none; fill-opacity: 1;"/></g><g class="arrow-line"><path class="connection real" stroke-dasharray="" d="  M47,117.5 L70.25,129.5" style="stroke: rgb(0, 0, 0); stroke-width: 1; fill: none; fill-opacity: 1;"/></g><g class="arrow-line"><path class="connection real" stroke-dasharray="" d="  M154.67,117.5 L124.5,129.5" style="stroke: rgb(0, 0, 0); stroke-width: 1; fill: none; fill-opacity: 1;"/></g><g class="arrow-line"><path class="connection real" stroke-dasharray="" d="  M154.67,117.5 L178.75,129.5" style="stroke: rgb(0, 0, 0); stroke-width: 1; fill: none; fill-opacity: 1;"/></g><g class="arrow-line"><path class="connection real" stroke-dasharray="" d="  M262.34,117.5 L233,129.5" style="stroke: rgb(0, 0, 0); stroke-width: 1; fill: none; fill-opacity: 1;"/></g></g><g/></g><g/><g/><g/></svg>
        <svg xmlns="http://www.w3.org/2000/svg" xmlns:xlink="http://www.w3.org/1999/xlink" width="700" height="168" style="width:700px;height:168px;font-family:Asana-Math, Asana;background:#FFF;"><g><g><g><text x="213" y="9" style="white-space:pre;stroke:none;fill:rgb(144,19,254);fill-opacity:1;font-size:15px;font-family:Arial, Helvetica, sans-serif;font-weight:700;font-style:normal;dominant-baseline:text-before-edge;text-decoration:none;">2</text></g></g></g><g><g><g><text x="102.625" y="57.5" style="white-space:pre;stroke:none;fill:rgb(144,19,254);fill-opacity:1;font-size:15px;font-family:Arial, Helvetica, sans-serif;font-weight:700;font-style:normal;dominant-baseline:text-before-edge;text-decoration:none;">5</text></g></g></g><g><g><g><text x="316" y="53" style="white-space:pre;stroke:none;fill:rgb(144,19,254);fill-opacity:1;font-size:15px;font-family:Arial, Helvetica, sans-serif;font-weight:700;font-style:normal;dominant-baseline:text-before-edge;text-decoration:none;">7</text></g></g></g><g><g><g><text x="42" y="96" style="white-space:pre;stroke:none;fill:rgb(144,19,254);fill-opacity:1;font-size:15px;font-family:Arial, Helvetica, sans-serif;font-weight:700;font-style:normal;dominant-baseline:text-before-edge;text-decoration:none;">7</text></g></g></g><g><g><g><text x="151" y="96" style="white-space:pre;stroke:none;fill:rgb(144,19,254);fill-opacity:1;font-size:15px;font-family:Arial, Helvetica, sans-serif;font-weight:700;font-style:normal;dominant-baseline:text-before-edge;text-decoration:none;">8</text></g></g></g><g><g><g><text x="254" y="96" style="white-space:pre;stroke:none;fill:rgb(144,19,254);fill-opacity:1;font-size:15px;font-family:Arial, Helvetica, sans-serif;font-weight:700;font-style:normal;dominant-baseline:text-before-edge;text-decoration:none;">13</text></g></g></g><g><g><g><text x="366" y="96" style="white-space:pre;stroke:none;fill:rgb(144,19,254);fill-opacity:1;font-size:15px;font-family:Arial, Helvetica, sans-serif;font-weight:700;font-style:normal;dominant-baseline:text-before-edge;text-decoration:none;">7</text></g></g></g><g><g><g><text x="11" y="134" style="white-space:pre;stroke:none;fill:rgb(144,19,254);fill-opacity:1;font-size:15px;font-family:Arial, Helvetica, sans-serif;font-weight:700;font-style:normal;dominant-baseline:text-before-edge;text-decoration:none;">9</text></g></g></g><g><g><g><text x="61.625" y="134.5" style="white-space:pre;stroke:none;fill:rgb(144,19,254);fill-opacity:1;font-size:15px;font-family:Arial, Helvetica, sans-serif;font-weight:700;font-style:normal;dominant-baseline:text-before-edge;text-decoration:none;">10</text></g></g></g><g><g><g><text x="117" y="134" style="white-space:pre;stroke:none;fill:rgb(144,19,254);fill-opacity:1;font-size:15px;font-family:Arial, Helvetica, sans-serif;font-weight:700;font-style:normal;dominant-baseline:text-before-edge;text-decoration:none;">11</text></g></g></g><g><g><g><text x="171" y="134" style="white-space:pre;stroke:none;fill:rgb(144,19,254);fill-opacity:1;font-size:15px;font-family:Arial, Helvetica, sans-serif;font-weight:700;font-style:normal;dominant-baseline:text-before-edge;text-decoration:none;">12</text></g></g></g><g><g><g><text x="224" y="135" style="white-space:pre;stroke:none;fill:rgb(144,19,254);fill-opacity:1;font-size:15px;font-family:Arial, Helvetica, sans-serif;font-weight:700;font-style:normal;dominant-baseline:text-before-edge;text-decoration:none;">15</text></g></g></g></svg>
</svg>
